<?xml version="1.0" encoding="utf-8"?>
<!-- Generator: Adobe Illustrator 24.1.0, SVG Export Plug-In . SVG Version: 6.00 Build 0)  -->
<svg version="1.1" id="Calque_1" xmlns="http://www.w3.org/2000/svg" xmlns:xlink="http://www.w3.org/1999/xlink" x="0px" y="0px"
	 viewBox="0 0 1000 1000" style="enable-background:new 0 0 1000 1000;" xml:space="preserve">
<style type="text/css">
	.st0{fill:#FFFAFA;}
</style>
<path class="st0" d="M500,734.5c-6.6,6.1-12.5,11.2-18,16.7c-79.1,79-158.5,157.6-236.7,237.4c-15,15.3-22.6,14-36.8-0.5
	C143.5,921.4,77.6,855.5,11,790.4c-13.9-13.6-15-20.6-0.4-35c79.8-78.2,157.9-158.2,237.9-236.3c16.5-16.1,14.6-23.9-0.7-38.9
	C168,402.1,89.7,322.3,10.1,243.9c-12.9-12.7-14-19.6-0.4-32.9C77.6,144.6,144.7,77.5,211,9.6c13.7-14,20.6-11.7,32.9,0.8
	C323,90.6,403.3,169.6,482.3,249.9c13.7,14,20.8,14.8,35,0.3c78.2-79.8,158.2-157.9,236.3-237.9c16.1-16.4,23.8-14.5,38.7,0.8
	c65,66.7,131,132.4,197.6,197.6c13.2,12.9,13.5,19.8,0.2,32.9c-80.3,79-159.2,159.5-239.7,238.2c-15.5,15.2-13.6,22.9,0.7,36.9
	c79.7,78.4,158.1,158.1,237.8,236.4c13.9,13.6,15.1,20.6,0.4,35c-67.4,65.6-133.9,132-199.4,199.5c-14.6,15.1-21.6,12.7-34.9-0.8
	c-78.4-79.7-157.7-158.4-236.8-237.4C512.7,745.9,506.8,740.8,500,734.5z"/>
</svg>
